<svg width="72" height="72" viewBox="0 0 72 72" fill="none" xmlns="http://www.w3.org/2000/svg">
<g filter="url(#filter0_d)">
<path d="M62.1 48.5H49.6V31.3L35.7 45.2L21.8 31.3V48.5H8.9C14.5 57.4 24.4 63.4 35.7 63.4C47 63.4 56.9 57.5 62.5 48.5H62.1Z" fill="#3CD3C1" fill-opacity="0.88"/>
<path d="M15.2 41.9V15.5L35.7 36L56.2 15.5V41.9H65.7C66.8 38.7 67.4 35.3 67.4 31.7C67.4 14.2 53.2 0 35.7 0C18.2 0 4 14.2 4 31.7C4 35.3 4.6 38.7 5.7 41.9H15.2Z" fill="#333333"/>
</g>
<defs>
<filter id="filter0_d" x="0" y="0" width="71.4" height="71.4" filterUnits="userSpaceOnUse" color-interpolation-filters="sRGB">
<feFlood flood-opacity="0" result="BackgroundImageFix"/>
<feColorMatrix in="SourceAlpha" type="matrix" values="0 0 0 0 0 0 0 0 0 0 0 0 0 0 0 0 0 0 127 0"/>
<feOffset dy="4"/>
<feGaussianBlur stdDeviation="2"/>
<feColorMatrix type="matrix" values="0 0 0 0 0 0 0 0 0 0 0 0 0 0 0 0 0 0 0.25 0"/>
<feBlend mode="normal" in2="BackgroundImageFix" result="effect1_dropShadow"/>
<feBlend mode="normal" in="SourceGraphic" in2="effect1_dropShadow" result="shape"/>
</filter>
</defs>
</svg>
