<svg width="64" height="65" viewBox="0 0 64 65" fill="none" xmlns="http://www.w3.org/2000/svg">
<g filter="url(#filter0_d)">
<path d="M58.1 48.5H45.6V31.3L31.7 45.2L17.8 31.3V48.5H4.9C10.5 57.4 20.4 63.4 31.7 63.4C43 63.4 52.9 57.5 58.5 48.5H58.1Z" fill="#3CD3C1" fill-opacity="0.88"/>
<path d="M11.2 41.9V15.5L31.7 36L52.2 15.5V41.9H61.7C62.8 38.7 63.4 35.3 63.4 31.7C63.4 14.2 49.2 0 31.7 0C14.2 0 0 14.2 0 31.7C0 35.3 0.6 38.7 1.7 41.9H11.2Z" fill="white" fill-opacity="0.9"/>
</g>
<defs>
<filter id="filter0_d" x="-4" y="0" width="71.4" height="71.4" filterUnits="userSpaceOnUse" color-interpolation-filters="sRGB">
<feFlood flood-opacity="0" result="BackgroundImageFix"/>
<feColorMatrix in="SourceAlpha" type="matrix" values="0 0 0 0 0 0 0 0 0 0 0 0 0 0 0 0 0 0 127 0"/>
<feOffset dy="4"/>
<feGaussianBlur stdDeviation="2"/>
<feColorMatrix type="matrix" values="0 0 0 0 0 0 0 0 0 0 0 0 0 0 0 0 0 0 0.25 0"/>
<feBlend mode="normal" in2="BackgroundImageFix" result="effect1_dropShadow"/>
<feBlend mode="normal" in="SourceGraphic" in2="effect1_dropShadow" result="shape"/>
</filter>
</defs>
</svg>
